<svg xmlns="http://www.w3.org/2000/svg" version="1.1" xmlns:xlink="http://www.w3.org/1999/xlink" viewBox="0 0 200 200"><rect width="200" height="200" fill="url('#gradient')"></rect><defs><linearGradient id="gradient" gradientTransform="rotate(211 0.5 0.5)"><stop offset="0%" stop-color="#000000"></stop><stop offset="100%" stop-color="#263032"></stop></linearGradient></defs><g><g fill="#00d2aa" transform="matrix(2.8369630019288095,0,0,2.8369630019288095,17.288071607719814,120.84112567625692)" stroke="#ff0000" stroke-width="0.3"><path d="M4.73-14.22L4.73 0L1.31 0L1.31-14.22L4.73-14.22ZM7.11-14.22L11.61-14.22L14.79-4.33L17.95-14.22L22.46-14.22L22.46 0L19.02 0L19.02-3.32L19.36-10.12L15.92 0L13.65 0L10.21-10.13L10.54-3.32L10.54 0L7.11 0L7.11-14.22ZM33.46-8.57L33.46-6.03L28.07-6.03L28.07-2.64L34.43-2.64L34.43 0L24.64 0L24.64-14.22L34.45-14.22L34.45-11.57L28.07-11.57L28.07-8.57L33.46-8.57ZM37.71-3.19L37.71-3.19Q38.50-3.19 39.01-2.73Q39.53-2.27 39.53-1.54Q39.53-0.82 39.01-0.36Q38.50 0.11 37.71 0.11L37.71 0.11Q36.92 0.11 36.41-0.36Q35.90-0.83 35.90-1.54Q35.90-2.26 36.41-2.72Q36.92-3.19 37.71-3.19ZM45.20-10.57L45.20 0L41.89 0L41.89-10.57L45.20-10.57ZM41.70-13.29L41.70-13.29Q41.70-13.99 42.21-14.44Q42.71-14.89 43.53-14.89Q44.34-14.89 44.84-14.44Q45.35-13.99 45.35-13.29Q45.35-12.59 44.84-12.14Q44.34-11.69 43.53-11.69Q42.71-11.69 42.21-12.14Q41.70-12.59 41.70-13.29ZM46.82-4.82L46.81-5.38Q46.81-6.96 47.42-8.20Q48.04-9.43 49.19-10.10Q50.34-10.76 51.89-10.76L51.89-10.76Q54.27-10.76 55.63-9.29Q57.00-7.82 57.00-5.29L57.00-5.29L57.00-5.18Q57.00-2.71 55.63-1.25Q54.26 0.20 51.91 0.20L51.91 0.20Q49.66 0.20 48.29-1.16Q46.92-2.51 46.82-4.82L46.82-4.82ZM50.11-5.77L50.10-5.18Q50.10-3.71 50.56-3.03Q51.02-2.34 51.91-2.34L51.91-2.34Q53.67-2.34 53.71-5.05L53.71-5.05L53.71-5.38Q53.71-8.22 51.89-8.22L51.89-8.22Q50.24-8.22 50.11-5.77L50.11-5.77Z"></path></g></g></svg>